# xmcd
#
# Track frame offsets: 
#        150
#        5100
#        12221
#        28579
#        44729
#        57803
#        70474
#        87996
#        111013
#        134156
#        154529
#        172043
#        197450
#        214207
#
# Disc length: 3112 seconds
#
# Revision: 0
# Processed by: cddbd v1.5.2PL0 Copyright (c) Steve Scherf et al.
# Submitted via: ExactAudioCopy v1.0b1
#
DISCID=c70c260e
DTITLE=Underman - Eroism neautorizat
DYEAR=2011
DGENRE=Hip-Hop
TTITLE0=Intro
TTITLE1=Intotdeauna
TTITLE2=Semantic
TTITLE3=Dimensiuni
TTITLE4=In spatele privirilor
TTITLE5=Orasul mortilor
TTITLE6=Eroism neautorizat
TTITLE7=Mesia
TTITLE8=Sanatorium
TTITLE9=Purgatoriul vs. Dante
TTITLE10=Niciodata erou
TTITLE11=Copilul razboiului
TTITLE12=Giganti de metal
TTITLE13=Mana ce aduce dreptatea
EXTD=
EXTT0=
EXTT1=
EXTT2=
EXTT3=
EXTT4=
EXTT5=
EXTT6=
EXTT7=
EXTT8=
EXTT9=
EXTT10=
EXTT11=
EXTT12=
EXTT13=
PLAYORDER=
